<?xml version="1.0" encoding="utf-8"?>
<!-- Generator: Adobe Illustrator 25.0.0, SVG Export Plug-In . SVG Version: 6.00 Build 0)  -->
<svg version="1.1" id="Layer_1" xmlns="http://www.w3.org/2000/svg" xmlns:xlink="http://www.w3.org/1999/xlink" x="0px" y="0px"
	 viewBox="0 0 61 50" style="enable-background:new 0 0 61 50;" xml:space="preserve">
<style type="text/css">
	.st0{fill:#FFE800;}
	.st1{fill:#FFC60A;}
	.st2{fill:#006838;}
</style>
<g>
	<g>
		<g>
			<path class="st0" d="M24,10c2,1.1,3.8,3,4.8,5.1c0.9,2.1,1.6,4.4,2.8,6.4c2.4,3.9,6.7,6.4,11.2,7.5c4.7,1.1,9.8,0.9,14.1,3.3
				c0.8,0.5,1.7,1.1,2.2,1.8c0,0,1.5,0.5,0.6,3.5c0,0-5.9,6.7-21.8,5.2c-16.6-1.6-22.3-16.1-22.2-22.5c0.1-6.5,3.5-10.1,3.5-10.1
				c1-3.3,0.7-6.8,1-7c0,0,3-0.2,4.1,0.3C24.5,3.5,23.6,8.3,24,10z"/>
			<g>
				<path class="st1" d="M15.7,20.2c0.1-6.5,3.5-10.1,3.5-10.1c1-3.3,0.7-6.8,1-7c0,0,1.7-0.1,2.6,0c-0.8,5.7,0.8,7.6,1.3,12.6
					c1,10.4,7.3,15.3,17.6,17.7c7.4,1.7,12.9,1,18.3,3.2c0,0.3-0.1,0.5-0.2,0.8c0,0-5.9,6.7-21.8,5.2C21.3,41.1,15.6,26.6,15.7,20.2
					z"/>
			</g>
		</g>
		<g>
			<g>
				<path class="st2" d="M24.2,9.7c1.2,0.7,2.4,1.6,3.3,2.7c1,1.1,1.6,2.4,2.1,3.8c0.6,1.5,1.1,3.1,1.9,4.5c0.7,1.2,1.6,2.4,2.6,3.4
					c2,1.9,4.6,3.2,7.2,4.1c2.9,0.9,6,1.1,9,1.6c1.7,0.3,3.4,0.6,5,1.3c1.5,0.6,3,1.4,4,2.7c-0.1,0-0.1-0.1-0.2-0.1
					c1,0.3,1.2,1.7,1.1,2.5c0,0.3-0.1,0.5-0.1,0.8c0,0.2-0.1,0.4-0.2,0.6c0,0,0,0,0,0c-0.1,0.1-0.2,0.2-0.3,0.3
					c-1.3,1.2-2.9,2.1-4.5,2.8c-3.3,1.4-6.9,2.1-10.5,2.3c-4.6,0.2-9.4-0.1-13.8-1.8c-3.4-1.3-6.4-3.4-8.9-6c-2.1-2.3-3.8-5-4.9-7.9
					c-0.9-2.2-1.5-4.6-1.6-6.9c-0.1-3.5,1-7.2,3.1-10c0.1-0.2,0.4-0.4,0.5-0.6c0,0,0,0,0-0.1c0-0.2,0.1-0.3,0.1-0.5
					c0.1-0.3,0.2-0.7,0.2-1c0.1-0.7,0.2-1.3,0.3-2c0.1-0.9,0.1-1.9,0.2-2.8c0-0.2,0-0.5,0.2-0.6c0.1-0.1,0.3-0.1,0.5-0.1
					c0.8,0,1.6,0,2.4,0c0.4,0,0.9,0.1,1.3,0.2c0.2,0.1,0.4,0.2,0.5,0.4c0,0.5-0.1,1.1-0.2,1.6c-0.1,0.9-0.2,1.8-0.2,2.7
					c0,0.7-0.1,1.5,0.1,2.2c0.1,0.4-0.5,0.5-0.5,0.1c-0.2-0.9-0.1-2-0.1-2.9c0.1-1,0.2-2,0.3-3c0-0.1,0-0.3,0-0.4c0,0,0-0.1,0-0.2
					c0-0.1,0,0,0,0c0,0,0.1,0.1,0.1,0.2c0,0,0,0-0.1,0c0,0-0.1,0-0.2-0.1c-0.1,0-0.2-0.1-0.3-0.1c-0.3-0.1-0.6-0.1-0.9-0.1
					c-0.5,0-1.1,0-1.7,0c-0.2,0-0.4,0-0.6,0c-0.1,0-0.1,0-0.2,0c0,0,0,0,0,0c0,0,0,0,0,0c-0.1,0,0,0,0.1-0.1c0,0,0,0,0,0.1
					s0,0.1,0,0.2c0,0.2,0,0.4,0,0.6c0,0.6-0.1,1.3-0.1,1.9c-0.1,0.8-0.2,1.5-0.3,2.3c-0.1,0.4-0.2,0.8-0.3,1.2
					c-0.1,0.2-0.1,0.5-0.2,0.7c-0.2,0.3-0.5,0.6-0.7,0.8c-0.5,0.7-0.9,1.5-1.3,2.3c-1,2.3-1.6,4.8-1.4,7.3c0.1,1.4,0.3,2.8,0.7,4.1
					c1,3.6,2.9,7,5.4,9.8c3.1,3.5,7.3,5.9,11.9,7c3,0.7,6.1,0.9,9.1,0.9c2.6,0,5.2-0.3,7.8-0.9c2.8-0.7,5.7-1.8,7.9-3.7
					c0.2-0.2,0.4-0.3,0.6-0.5c0,0,0.1-0.1,0.1-0.1c0,0,0,0,0,0c0,0.1,0-0.3,0-0.1c0-0.2,0.1-0.4,0.1-0.7c0.1-0.7,0.1-1.7-0.5-2.1
					c0,0-0.1-0.1-0.2-0.1c0.1,0,0,0,0,0c-0.1-0.1-0.2-0.1-0.2-0.2c-0.5-0.7-1.2-1.1-1.9-1.5c-2.8-1.7-6.2-2.1-9.4-2.5
					c-3.1-0.4-6.2-1-9.1-2.3c-2.7-1.2-5.1-3.1-6.7-5.6c-0.9-1.4-1.6-2.9-2.2-4.5c-0.6-1.5-1.1-3.1-2.2-4.4c-0.9-1.2-2.1-2.2-3.5-3
					C23.6,10,23.9,9.6,24.2,9.7z"/>
			</g>
			<g>
				<g>
					<path class="st2" d="M58.8,35c-0.1,0.7,0,1.4,0.3,2c0.1,0.1-0.1,0.3-0.2,0.3c-0.2,0-0.3,0-0.3-0.2c-0.3-0.7-0.4-1.4-0.3-2.2
						c0-0.2,0.1-0.3,0.3-0.3C58.7,34.7,58.9,34.9,58.8,35L58.8,35z"/>
				</g>
				<g>
					<path class="st2" d="M22.9,10.4c-0.8,0-1.6,0-2.5,0.1c-0.1,0-0.3-0.1-0.3-0.3c0-0.2,0.1-0.3,0.3-0.3c0.8-0.1,1.6-0.1,2.5-0.1
						c0.1,0,0.3,0.1,0.3,0.3C23.1,10.3,23,10.4,22.9,10.4L22.9,10.4z"/>
				</g>
				<g>
					<path class="st2" d="M21.9,5c-0.1,1.2-0.2,2.5-0.4,3.7c0,0.1-0.1,0.3-0.3,0.3C21.1,9,21,8.8,21,8.7c0.1-1.2,0.2-2.5,0.4-3.7
						c0-0.2,0.1-0.3,0.3-0.3C21.8,4.7,21.9,4.9,21.9,5L21.9,5z"/>
				</g>
				<g>
					<path class="st2" d="M20.5,13.2c0.5,6.5,1.9,13.4,6.2,18.5c4.2,5,10.6,7.7,17.1,8C47.9,40,52,39.3,55.8,38
						c0.3-0.1,0.5,0.4,0.2,0.5c-6.8,2.3-14.4,2.7-21.2-0.2c-2.9-1.2-5.6-3-7.8-5.4c-2.3-2.4-3.9-5.4-5-8.6
						c-1.2-3.6-1.8-7.4-2.1-11.2C19.9,12.8,20.4,12.8,20.5,13.2L20.5,13.2z"/>
				</g>
				<g>
					<path class="st2" d="M56,35c-2.2-1.2-4.7-1.5-7.1-1.7c-0.3,0-0.4-0.6,0-0.5c2.5,0.2,5.1,0.5,7.3,1.7C56.5,34.7,56.3,35.2,56,35
						L56,35z"/>
				</g>
			</g>
		</g>
		<g>
			<path class="st2" d="M34.1,28.7c-1.2-0.9-2.3-1.9-3.3-3.1c-0.1-0.1-0.1-0.3,0-0.4c0.1-0.1,0.3-0.1,0.4,0c0.9,1.1,2,2.1,3.2,3
				c0.1,0.1,0.2,0.2,0.1,0.4C34.4,28.7,34.2,28.8,34.1,28.7L34.1,28.7z"/>
		</g>
	</g>
	<g>
		<g>
			<path class="st0" d="M19.4,9.7c1.6,1.6,2.9,3.9,3.2,6.2s0.4,4.6,1,6.9c1.2,4.4,4.8,8,8.8,10.2c4.2,2.3,9.2,3.5,12.7,6.9
				c0.7,0.7,1.3,1.5,1.7,2.4c0,0,1.3,0.8-0.3,3.5c0,0-7.4,4.9-22.4-0.8C8.6,38.9,6.9,23.4,8.7,17.3c1.8-6.3,6.1-8.8,6.1-8.8
				c1.9-2.9,2.5-6.4,2.9-6.5c0.1,0,2.9,0.6,3.9,1.4C21.6,3.5,19.5,7.9,19.4,9.7z"/>
			<g>
				<path class="st1" d="M8.7,17.3c1.8-6.3,6.1-8.8,6.1-8.8c1.9-2.9,2.5-6.4,2.9-6.5c0,0,1.7,0.3,2.5,0.7C17.8,8,18.8,10.2,18,15.2
					c-1.8,10.3,2.9,16.7,12.2,21.7c6.7,3.6,12.2,4.3,16.8,7.9c-0.1,0.2-0.2,0.5-0.4,0.8c0,0-7.4,4.9-22.4-0.8
					C8.6,38.9,6.9,23.4,8.7,17.3z"/>
			</g>
		</g>
		<g>
			<g>
				<path class="st2" d="M19.6,9.5c1.1,1.1,2,2.3,2.6,3.7c0.6,1.5,0.8,3,1,4.6c0.2,1.7,0.3,3.4,0.8,5c0.4,1.3,1,2.6,1.8,3.7
					c1.5,2.3,3.7,4.2,6.1,5.7c2.5,1.5,5.3,2.5,7.9,3.7c1.5,0.7,2.9,1.5,4.2,2.4c1.3,1,2.5,2.2,3.1,3.7c0-0.1-0.1-0.1-0.1-0.2
					c1,0.7,0.7,2.2,0.3,3c-0.2,0.3-0.3,0.8-0.7,1c-0.2,0.1-0.3,0.2-0.5,0.2c-1.8,0.9-3.9,1.3-5.9,1.5c-4.1,0.4-8.2-0.2-12.2-1.3
					c-4.4-1.2-8.6-3.1-12-6.1c-2.6-2.3-4.7-5.2-6.1-8.4c-1.2-2.7-1.9-5.7-2.1-8.6c-0.2-2.5,0.1-5,0.9-7.4c1.1-2.9,2.9-5.7,5.5-7.5
					c0.1-0.1,0.2-0.1,0.2-0.2c0,0,0,0,0,0c0,0,0.1-0.2,0.1-0.2c0.1-0.2,0.2-0.3,0.3-0.5c0.6-1.1,1-2.2,1.4-3.3
					c0.2-0.7,0.4-1.5,0.8-2.2c0.1-0.1,0.2-0.3,0.3-0.4c0.2,0,0.4,0,0.5,0.1c0.8,0.2,1.6,0.4,2.4,0.7c0.4,0.2,1.4,0.5,1.3,1
					c-0.1,0.5-0.4,1-0.6,1.6c-0.3,0.8-0.6,1.7-0.9,2.5C20,8.3,19.7,9,19.7,9.7c0,0.4-0.6,0.4-0.5,0c0-1,0.4-1.9,0.7-2.8
					C20.2,5.9,20.6,5,21,4c0.1-0.1,0.1-0.3,0.2-0.4c0-0.1,0.1-0.2,0.1-0.2s-0.1,0.2,0,0.2c0,0-0.1-0.1-0.1-0.1
					c-0.1-0.1-0.2-0.1-0.3-0.2C20.6,3.2,20.3,3.1,20,3c-0.5-0.2-1.1-0.4-1.6-0.5c-0.2,0-0.4-0.1-0.6-0.1c-0.1,0-0.1,0-0.2,0
					c0,0,0,0-0.1,0c-0.1,0,0,0,0,0c0,0,0.1,0,0.1,0c0,0,0-0.1,0,0c0,0-0.1,0.1-0.1,0.1c-0.1,0.2-0.1,0.3-0.2,0.5
					c-0.2,0.5-0.4,1-0.5,1.6c-0.5,1.4-1.1,2.8-1.8,4c-0.2,0.3-0.5,0.5-0.8,0.7c-0.6,0.4-1.1,0.9-1.6,1.4c-2.7,2.9-4.2,6.7-4.3,10.6
					c-0.1,3.6,0.6,7.3,2.1,10.6c1.8,4.2,4.8,7.7,8.6,10.2c2.5,1.6,5.2,2.7,8,3.6c2.8,0.9,5.8,1.5,8.7,1.7c3.2,0.2,6.6-0.1,9.6-1.3
					c0.3-0.1,0.5-0.2,0.8-0.4c0,0,0.1-0.1,0.2-0.1c0,0,0,0,0,0l0,0c-0.1,0,0-0.1,0-0.1c0-0.1,0.1-0.2,0.2-0.3
					c0.1-0.2,0.2-0.4,0.3-0.6c0.2-0.6,0.4-1.5-0.1-2c-0.1-0.1,0,0,0,0c-0.2-0.2-0.3-0.6-0.5-0.9c-0.4-0.7-1-1.3-1.6-1.9
					c-2.3-2-5.1-3.2-7.9-4.4c-2.8-1.2-5.5-2.5-7.9-4.4c-2.2-1.8-4-4.2-5.1-6.9c-0.6-1.6-0.9-3.3-1-5.1c-0.2-1.7-0.3-3.4-0.9-5
					c-0.6-1.5-1.5-2.8-2.6-3.9C19,9.6,19.4,9.2,19.6,9.5z"/>
			</g>
			<g>
				<g>
					<path class="st2" d="M46.4,43.1c-0.3,0.6-0.3,1.3-0.2,2c0,0.2-0.1,0.3-0.3,0.3c-0.2,0-0.3-0.1-0.3-0.3c-0.1-0.8,0-1.5,0.3-2.2
						c0.1-0.1,0.3-0.2,0.4-0.1C46.4,42.8,46.4,42.9,46.4,43.1L46.4,43.1z"/>
				</g>
				<g>
					<path class="st2" d="M18.2,9.8c-0.8-0.2-1.6-0.4-2.4-0.6c-0.1,0-0.2-0.2-0.2-0.3c0-0.2,0.2-0.2,0.3-0.2
						c0.8,0.1,1.6,0.3,2.4,0.6c0.1,0.1,0.2,0.2,0.2,0.3C18.5,9.7,18.3,9.8,18.2,9.8L18.2,9.8z"/>
				</g>
				<g>
					<path class="st2" d="M15.1,11.8c-1.3,6.7-1.8,14.1,1.5,20.4c2.9,5.6,8.3,9.7,14.4,11.5c3.8,1.2,7.8,1.6,11.7,1.3
						c0.4,0,0.3,0.5,0,0.5c-6.9,0.4-14.1-1.1-19.8-5.3c-2.5-1.9-4.7-4.2-6.3-6.9c-1.7-3-2.7-6.3-2.9-9.7c-0.4-4,0.1-8.1,0.9-12.1
						C14.7,11.3,15.2,11.5,15.1,11.8L15.1,11.8z"/>
				</g>
				<g>
					<path class="st2" d="M35.3,38.1c-1.9-0.8-3.7-1.6-5.4-2.7c-0.3-0.2,0-0.7,0.3-0.5c1.7,1,3.4,1.9,5.2,2.6
						C35.8,37.7,35.6,38.2,35.3,38.1L35.3,38.1z"/>
				</g>
				<g>
					<path class="st2" d="M43.6,42.3c-1.8-1.7-4.1-2.6-6.4-3.5c-0.3-0.1-0.2-0.7,0.2-0.5c2.4,0.9,4.8,1.8,6.6,3.6
						C44.2,42.1,43.9,42.5,43.6,42.3L43.6,42.3z"/>
				</g>
			</g>
		</g>
		<g>
			<path class="st2" d="M21.1,24.5c-1.1-3.7-0.2-8.1-2.6-11.4c-0.2-0.3,0.3-0.6,0.5-0.3c2.4,3.4,1.5,7.8,2.6,11.5
				C21.7,24.7,21.2,24.8,21.1,24.5L21.1,24.5z"/>
		</g>
		<g>
			<path class="st2" d="M24.2,30.4c-0.9-1.2-1.7-2.5-2.3-3.8c-0.1-0.3,0.3-0.6,0.5-0.3c0.6,1.3,1.4,2.6,2.2,3.7
				c0.1,0.1,0.1,0.3,0,0.4C24.5,30.5,24.3,30.5,24.2,30.4L24.2,30.4z"/>
		</g>
	</g>
	<g>
		<g>
			<path class="st0" d="M14.6,8.1c1.2,2,2,4.4,1.8,6.7c-0.2,2.3-0.6,4.6-0.5,6.9c0.3,4.6,2.9,8.8,6.4,11.9c3.6,3.2,8.3,5.4,10.9,9.5
				c0.5,0.8,1,1.7,1.1,2.7c0,0,1.1,1.1-1,3.4c0,0-8.3,3.2-21.7-5.6C-2.4,34.4-0.6,18.9,2.4,13.2C5.5,7.5,10.2,6,10.2,6
				c2.4-2.4,3.8-5.7,4.2-5.7c0.1,0,2.7,1.2,3.5,2.2C18,2.6,14.9,6.5,14.6,8.1z"/>
			<g>
				<path class="st1" d="M2.4,13.2C5.5,7.5,10.2,6,10.2,6c2.4-2.4,3.8-5.7,4.2-5.7c0,0,0.8,0.4,1.5,0.7c-1.7,3-6.1,7.1-7.7,11.9
					C6,19.4,2.6,32.2,13.5,40.7c7.7,6,15.6,7.4,20.3,7.8c-0.2,0.2-0.3,0.4-0.6,0.7c0,0-8.3,3.2-21.7-5.6
					C-2.4,34.4-0.6,18.9,2.4,13.2z"/>
			</g>
		</g>
		<g>
			<g>
				<path class="st2" d="M14.8,8c0.9,1.4,1.5,2.9,1.8,4.6c0.3,1.8,0,3.5-0.2,5.2c-0.2,1.8-0.4,3.6,0,5.3c0.2,1.5,0.8,3,1.5,4.4
					c1.4,2.8,3.5,5,5.9,7c2.4,1.9,5,3.5,7.2,5.6c1.1,1,2.1,2.2,2.8,3.5c0.2,0.3,0.3,0.7,0.5,1.1c0.1,0.2,0.1,0.4,0.2,0.6
					c0,0.1,0,0.2,0,0.2c0-0.1,0,0.2,0,0.1c0.1,0.2,0.2,0.3,0.3,0.5c0.3,0.9-0.1,1.8-0.7,2.5c-0.3,0.4-0.5,0.8-1,0.9
					c-2.3,0.7-5,0.6-7.4,0.2c-2.5-0.4-4.8-1.1-7.1-2.1c-3-1.3-6-2.9-8.6-4.9c-4.1-3-7.2-7.2-8.8-12.1c-1.2-3.9-1.5-8.1-0.8-12.1
					c0.3-1.5,0.7-3.1,1.3-4.5c0.9-2.2,2.4-4.2,4.2-5.8c1.2-1.1,2.5-2,4-2.6c0.1,0,0.2-0.1,0.2-0.1c-0.1,0.1,0.1-0.2,0.1-0.2
					c0.1-0.1,0.1-0.1,0.2-0.2c0.1-0.1,0.3-0.3,0.4-0.4c0.3-0.3,0.5-0.7,0.8-1c0.7-1,1.4-2.1,2-3.1c0.1-0.2,0.3-0.5,0.5-0.7
					s0.4-0.1,0.6,0c0.9,0.4,1.9,0.9,2.7,1.6c0.2,0.2,0.8,0.5,0.7,0.9c-0.1,0.2-0.3,0.4-0.4,0.6c-0.6,0.8-1.1,1.6-1.7,2.5
					c-0.5,0.8-1.1,1.6-1.3,2.5c-0.1,0.4-0.6,0.2-0.5-0.1c0.2-0.9,0.8-1.8,1.3-2.5c0.5-0.8,1.1-1.7,1.7-2.5c0.1-0.1,0.2-0.3,0.3-0.4
					c0-0.1,0.1-0.2,0.2-0.3c0,0,0.1,0.2,0,0.2s-0.1-0.2-0.2-0.2C17.2,2.2,17,2,16.8,1.8c-0.5-0.3-0.9-0.6-1.4-0.8
					c-0.2-0.1-0.4-0.2-0.6-0.3c-0.1,0-0.3-0.1-0.4-0.2c0-0.1,0,0,0.1,0c0.1,0,0.1-0.1,0,0c-0.1,0.1-0.2,0.2-0.2,0.3
					C14,1.2,13.8,1.6,13.5,2c-0.7,1.2-1.5,2.3-2.4,3.4c-0.3,0.3-0.5,0.7-0.9,0.9C10.1,6.3,10,6.4,9.9,6.4C9.3,6.7,8.7,7,8.2,7.3
					C4.8,9.5,2.3,13,1.3,16.8c-0.9,3.6-1,7.5-0.3,11.1c0.9,4.6,3.2,8.9,6.6,12.2c2.2,2.2,4.8,3.9,7.6,5.3c2.5,1.3,5.1,2.4,7.8,3.2
					c2.9,0.8,6.1,1.2,9.1,0.5c0.3-0.1,0.5-0.1,0.8-0.2c0,0,0.1,0,0.2,0h0c0,0,0.1-0.2,0.2-0.2c0.2-0.3,0.5-0.6,0.7-0.9
					c0.3-0.5,0.5-1.2,0.1-1.8c0.1,0.1-0.1-0.1-0.1-0.1c-0.1-0.2-0.1-0.3-0.1-0.5c-0.1-0.2-0.1-0.5-0.2-0.7c-0.3-0.7-0.7-1.4-1.2-2.1
					c-1.7-2.4-4.2-4.1-6.6-5.8c-2.4-1.8-4.8-3.5-6.6-5.9c-1.8-2.3-3.2-5-3.6-8c-0.2-1.7-0.1-3.4,0.1-5.1s0.5-3.4,0.2-5.1
					c-0.3-1.6-0.9-3.1-1.7-4.4C14.1,8,14.6,7.7,14.8,8z"/>
			</g>
			<g>
				<g>
					<path class="st2" d="M33.6,46.6c-0.4,0.5-0.6,1.2-0.7,1.8c0,0.2-0.1,0.3-0.3,0.3c-0.1,0-0.3-0.1-0.3-0.3
						c0.1-0.8,0.3-1.5,0.8-2.1c0.1-0.1,0.2-0.2,0.4-0.1C33.7,46.2,33.7,46.4,33.6,46.6L33.6,46.6z"/>
				</g>
				<g>
					<path class="st2" d="M13.3,8c-0.7-0.4-1.4-0.8-2.1-1.1C11,6.9,10.9,6.7,11,6.6c0-0.1,0.2-0.2,0.3-0.2c0.8,0.3,1.5,0.7,2.3,1.1
						C13.9,7.7,13.6,8.2,13.3,8L13.3,8z"/>
				</g>
				<g>
					<path class="st2" d="M15,2.8c-0.7,1-1.4,2.1-2.1,3.1c-0.2,0.3-0.7,0-0.5-0.3c0.7-1,1.4-2.1,2.1-3.1C14.8,2.2,15.2,2.5,15,2.8
						L15,2.8z"/>
				</g>
				<g>
					<path class="st2" d="M8.5,33.4c1.5,3.1,3.7,5.9,6.4,8.1c2.7,2.2,5.8,3.8,9,4.9c1.9,0.6,3.8,1.1,5.7,1.4c0.4,0,0.2,0.6-0.1,0.5
						c-3.5-0.5-6.9-1.6-10-3.2c-3.1-1.6-5.9-3.7-8.2-6.4c-1.3-1.5-2.4-3.2-3.2-5C7.9,33.3,8.4,33.1,8.5,33.4L8.5,33.4z"/>
				</g>
				<g>
					<path class="st2" d="M7,17.9c-0.9,4-0.8,8.3,0.3,12.2c0.1,0.3-0.4,0.5-0.5,0.1c-1.2-4.1-1.2-8.4-0.3-12.5
						C6.5,17.4,7.1,17.6,7,17.9L7,17.9z"/>
				</g>
				<g>
					<path class="st2" d="M9.9,9.3c-0.9,2-1.6,4.1-2.3,6.2c-0.1,0.3-0.6,0.2-0.5-0.1c0.6-2.1,1.4-4.2,2.3-6.3C9.6,8.7,10,9,9.9,9.3
						L9.9,9.3z"/>
				</g>
				<g>
					<path class="st2" d="M3.9,20.3c-0.4,2.5-0.4,5,0.3,7.5c0.1,0.3-0.4,0.5-0.5,0.1c-0.7-2.5-0.7-5.2-0.3-7.8
						C3.4,19.8,3.9,20,3.9,20.3L3.9,20.3z"/>
				</g>
				<g>
					<path class="st2" d="M5.7,13.1c-0.5,1.6-1,3.3-1.4,4.9c-0.1,0.4-0.6,0.2-0.5-0.1c0.4-1.7,0.9-3.3,1.4-4.9
						C5.3,12.7,5.8,12.8,5.7,13.1L5.7,13.1z"/>
				</g>
				<g>
					<path class="st2" d="M31.1,45.2c-1.3-2-3.2-3.3-5.2-4.6c-2.1-1.3-4.1-2.6-5.9-4.3c-1.1-1-2.1-2.1-3-3.2
						c-0.2-0.3,0.2-0.7,0.4-0.4c1.6,2.1,3.6,3.9,5.7,5.4c1.9,1.4,4,2.5,5.8,3.9c1,0.8,1.9,1.8,2.6,2.8
						C31.8,45.2,31.3,45.5,31.1,45.2L31.1,45.2z"/>
				</g>
				<g>
					<path class="st2" d="M14.5,28.5c-1.3-2.5-1.9-5.4-1.8-8.2c0-0.4,0.6-0.4,0.6,0c-0.1,2.8,0.5,5.5,1.7,7.9
						C15.1,28.6,14.6,28.8,14.5,28.5L14.5,28.5z"/>
				</g>
			</g>
		</g>
	</g>
</g>
</svg>
