<?xml version="1.0" encoding="utf-8"?>
<!-- Generator: Adobe Illustrator 25.0.0, SVG Export Plug-In . SVG Version: 6.00 Build 0)  -->
<svg version="1.1" id="Layer_1" xmlns="http://www.w3.org/2000/svg" xmlns:xlink="http://www.w3.org/1999/xlink" x="0px" y="0px"
	 viewBox="0 0 140 50" style="enable-background:new 0 0 140 50;" xml:space="preserve">
<style type="text/css">
	.st0{fill:#FFE800;}
	.st1{fill:#006838;}
	.st2{fill:#FFC60A;}
</style>
<g>
	<path class="st0" d="M17.13,30.18c-6.59,0-11.95-5.36-11.95-11.95c0-6.59,5.36-11.95,11.95-11.95h110.62
		c6.59,0,11.95,5.36,11.95,11.95c0,6.59-5.36,11.95-11.95,11.95H17.13z"/>
	<path class="st1" d="M127.75,6.58c6.42,0,11.65,5.22,11.65,11.65s-5.22,11.65-11.65,11.65H17.13c-6.42,0-11.65-5.22-11.65-11.65
		S10.71,6.58,17.13,6.58H127.75 M127.75,5.98H17.13c-6.76,0-12.25,5.48-12.25,12.25v0c0,6.76,5.48,12.25,12.25,12.25h110.62
		c6.76,0,12.25-5.48,12.25-12.25v0C140,11.47,134.52,5.98,127.75,5.98L127.75,5.98z"/>
</g>
<g>
	<g>
		<g>
			<path class="st0" d="M24.02,9.99c2.01,1.15,3.84,2.96,4.77,5.09c0.92,2.12,1.58,4.38,2.78,6.36c2.38,3.94,6.71,6.41,11.19,7.48
				c4.71,1.12,9.84,0.91,14.07,3.27c0.85,0.47,1.66,1.06,2.22,1.85c0,0,1.52,0.47,0.64,3.46c0,0-5.87,6.67-21.79,5.17
				c-16.6-1.56-22.31-16.11-22.25-22.5c0.06-6.51,3.52-10.06,3.52-10.06c1.02-3.26,0.71-6.84,1.02-7.03
				c0.05-0.03,2.98-0.19,4.13,0.31C24.48,3.46,23.59,8.33,24.02,9.99z"/>
			<g>
				<path class="st2" d="M15.66,20.18c0.06-6.51,3.52-10.06,3.52-10.06c1.02-3.26,0.71-6.84,1.02-7.03c0.02-0.01,1.69-0.13,2.59,0
					c-0.79,5.72,0.77,7.59,1.27,12.65c1.03,10.4,7.26,15.35,17.56,17.7c7.38,1.68,12.91,0.95,18.26,3.21
					c-0.04,0.26-0.1,0.54-0.2,0.85c0,0-5.87,6.67-21.79,5.17C21.3,41.11,15.6,26.57,15.66,20.18z"/>
			</g>
		</g>
		<g>
			<g>
				<path class="st1" d="M24.16,9.75c1.24,0.72,2.37,1.63,3.3,2.72c0.98,1.15,1.59,2.45,2.14,3.85c0.6,1.52,1.14,3.06,1.93,4.49
					c0.69,1.25,1.58,2.38,2.63,3.37c2.04,1.92,4.58,3.25,7.24,4.08c2.91,0.9,5.96,1.12,8.95,1.61c1.69,0.28,3.38,0.65,4.98,1.3
					c1.49,0.6,3,1.41,3.97,2.73c-0.06-0.04-0.11-0.08-0.17-0.13c1,0.32,1.18,1.66,1.09,2.54c-0.03,0.27-0.07,0.53-0.13,0.79
					c-0.04,0.19-0.07,0.43-0.2,0.59c-0.01,0.02-0.03,0.03-0.05,0.05c-0.1,0.11-0.21,0.21-0.32,0.31c-1.31,1.2-2.91,2.09-4.53,2.8
					c-3.31,1.43-6.91,2.09-10.49,2.27c-4.62,0.23-9.42-0.13-13.77-1.82c-3.37-1.31-6.41-3.37-8.86-6.03
					c-2.11-2.29-3.78-4.97-4.93-7.86c-0.88-2.19-1.52-4.56-1.56-6.93c-0.06-3.49,0.97-7.18,3.11-9.97c0.14-0.18,0.39-0.38,0.49-0.58
					c0.01-0.01-0.04,0.04-0.01-0.06c0.04-0.16,0.09-0.32,0.13-0.49c0.09-0.34,0.16-0.69,0.23-1.03c0.13-0.67,0.21-1.34,0.28-2.01
					c0.09-0.93,0.09-1.86,0.19-2.79c0.02-0.2,0.03-0.47,0.18-0.63c0.13-0.13,0.34-0.12,0.51-0.13c0.8-0.04,1.61-0.04,2.4,0.04
					c0.43,0.04,0.86,0.09,1.27,0.22c0.25,0.08,0.44,0.15,0.45,0.43c0.02,0.53-0.11,1.1-0.17,1.63c-0.1,0.88-0.2,1.76-0.25,2.65
					c-0.04,0.71-0.09,1.47,0.08,2.16c0.08,0.35-0.45,0.49-0.53,0.15c-0.23-0.94-0.13-1.97-0.06-2.92c0.08-1.02,0.21-2.02,0.33-3.04
					c0.02-0.14,0.03-0.29,0.04-0.43c0-0.05,0-0.1,0.01-0.15c0.02-0.09-0.02-0.05,0-0.04c0.04,0.05,0.09,0.1,0.13,0.15
					c-0.02-0.01-0.04-0.01-0.06-0.02c-0.05,0-0.14-0.05-0.18-0.06c-0.11-0.03-0.23-0.06-0.34-0.08c-0.29-0.06-0.59-0.09-0.88-0.11
					c-0.55-0.04-1.11-0.05-1.67-0.04c-0.19,0-0.38,0.01-0.57,0.02c-0.06,0-0.12,0.01-0.18,0.01c-0.01,0-0.04,0.01-0.05,0
					c-0.03,0-0.03,0,0.03,0c-0.06,0.01-0.02-0.02,0.12-0.09c0,0-0.02,0.02-0.02,0.08c0,0.06-0.02,0.12-0.03,0.17
					c-0.03,0.21-0.04,0.43-0.05,0.64c-0.04,0.63-0.07,1.27-0.12,1.9c-0.07,0.77-0.16,1.54-0.3,2.31c-0.07,0.41-0.16,0.81-0.27,1.22
					c-0.06,0.24-0.1,0.53-0.25,0.74c-0.21,0.29-0.46,0.55-0.67,0.84c-0.51,0.72-0.94,1.49-1.31,2.29c-1.04,2.27-1.55,4.85-1.44,7.35
					c0.06,1.4,0.34,2.78,0.72,4.12c1.03,3.6,2.91,6.99,5.42,9.77c3.15,3.5,7.29,5.92,11.86,7.05c2.96,0.73,6.06,0.92,9.11,0.88
					c2.61-0.04,5.22-0.32,7.75-0.94c2.8-0.69,5.68-1.83,7.91-3.66c0.21-0.17,0.42-0.35,0.61-0.55c0.04-0.04,0.1-0.09,0.13-0.14
					c0.01-0.01,0.02-0.02,0.02-0.03c-0.04,0.09,0.03-0.29,0-0.12c0.04-0.22,0.11-0.43,0.14-0.66c0.11-0.69,0.1-1.71-0.5-2.14
					c-0.05-0.04-0.11-0.07-0.17-0.1c0.09,0.04,0.04,0.02,0.02,0.01c-0.11-0.06-0.15-0.12-0.24-0.22c-0.5-0.65-1.16-1.14-1.86-1.55
					c-2.85-1.66-6.19-2.09-9.4-2.53c-3.13-0.43-6.22-0.96-9.1-2.32c-2.66-1.25-5.07-3.11-6.71-5.57c-0.93-1.38-1.56-2.93-2.16-4.48
					c-0.6-1.54-1.14-3.11-2.17-4.42C26.4,12,25.2,11,23.88,10.23C23.57,10.05,23.85,9.58,24.16,9.75z"/>
			</g>
			<g>
				<g>
					<path class="st1" d="M58.85,35.01c-0.09,0.69,0,1.38,0.27,2.02c0.06,0.14-0.06,0.3-0.19,0.34c-0.16,0.04-0.28-0.05-0.34-0.19
						c-0.28-0.68-0.38-1.44-0.29-2.17c0.02-0.15,0.11-0.28,0.28-0.28C58.7,34.73,58.87,34.86,58.85,35.01L58.85,35.01z"/>
				</g>
				<g>
					<path class="st1" d="M22.85,10.45c-0.82-0.04-1.64-0.02-2.46,0.06c-0.15,0.01-0.28-0.14-0.28-0.28c0-0.16,0.13-0.26,0.28-0.28
						c0.82-0.08,1.64-0.1,2.46-0.06c0.15,0.01,0.28,0.12,0.28,0.28C23.13,10.31,23,10.45,22.85,10.45L22.85,10.45z"/>
				</g>
				<g>
					<path class="st1" d="M21.93,5.01c-0.12,1.23-0.25,2.46-0.37,3.68c-0.01,0.15-0.12,0.28-0.28,0.28c-0.14,0-0.29-0.13-0.28-0.28
						c0.12-1.23,0.25-2.46,0.37-3.68c0.01-0.15,0.12-0.28,0.28-0.28C21.79,4.73,21.94,4.86,21.93,5.01L21.93,5.01z"/>
				</g>
				<g>
					<path class="st1" d="M20.45,13.21c0.52,6.51,1.87,13.41,6.19,18.54c4.22,5.02,10.65,7.74,17.13,8.05
						c4.1,0.2,8.21-0.49,12.08-1.83c0.34-0.12,0.48,0.42,0.15,0.53c-6.81,2.34-14.44,2.69-21.16-0.15
						c-2.93-1.24-5.64-3.04-7.83-5.36c-2.3-2.44-3.92-5.42-5.01-8.58c-1.24-3.61-1.8-7.42-2.1-11.21
						C19.87,12.85,20.42,12.85,20.45,13.21L20.45,13.21z"/>
				</g>
				<g>
					<path class="st1" d="M55.96,35.02c-2.16-1.19-4.65-1.46-7.07-1.65c-0.35-0.03-0.36-0.58,0-0.55c2.52,0.2,5.1,0.48,7.35,1.72
						C56.55,34.71,56.28,35.19,55.96,35.02L55.96,35.02z"/>
				</g>
			</g>
		</g>
		<g>
			<path class="st1" d="M34.13,28.69c-1.21-0.9-2.3-1.93-3.27-3.08c-0.1-0.11-0.11-0.28,0-0.39c0.1-0.1,0.3-0.12,0.39,0
				c0.93,1.11,1.99,2.13,3.16,3c0.12,0.09,0.18,0.24,0.1,0.38C34.44,28.71,34.25,28.78,34.13,28.69L34.13,28.69z"/>
		</g>
	</g>
	<g>
		<g>
			<path class="st0" d="M19.44,9.67c1.63,1.64,2.92,3.88,3.25,6.17c0.33,2.29,0.36,4.64,0.99,6.87c1.25,4.44,4.77,7.97,8.81,10.18
				c4.24,2.33,9.25,3.49,12.7,6.89c0.69,0.68,1.32,1.46,1.65,2.37c0,0,1.34,0.85-0.3,3.51c0,0-7.43,4.88-22.38-0.79
				C8.57,38.95,6.93,23.41,8.68,17.27C10.47,11,14.75,8.5,14.75,8.5c1.85-2.88,2.5-6.41,2.85-6.5c0.06-0.02,2.92,0.61,3.9,1.39
				C21.62,3.49,19.47,7.95,19.44,9.67z"/>
			<g>
				<path class="st2" d="M8.68,17.27C10.47,11,14.75,8.5,14.75,8.5c1.85-2.88,2.5-6.41,2.85-6.5c0.03-0.01,1.66,0.32,2.5,0.69
					c-2.28,5.3-1.27,7.52-2.14,12.53C16.2,25.52,20.89,31.95,30.2,36.95c6.67,3.58,12.19,4.34,16.75,7.94
					c-0.11,0.24-0.24,0.49-0.42,0.77c0,0-7.43,4.88-22.38-0.79C8.57,38.95,6.93,23.41,8.68,17.27z"/>
			</g>
		</g>
		<g>
			<g>
				<path class="st1" d="M19.64,9.47c1.07,1.08,1.96,2.35,2.57,3.74c0.64,1.47,0.83,3,0.99,4.58c0.17,1.69,0.32,3.4,0.81,5.04
					c0.4,1.33,1.01,2.58,1.78,3.73c1.55,2.33,3.71,4.23,6.11,5.66c2.52,1.51,5.3,2.48,7.94,3.73c1.46,0.69,2.88,1.46,4.17,2.44
					c1.28,0.98,2.52,2.16,3.11,3.69c-0.04-0.06-0.08-0.11-0.13-0.17c0.99,0.65,0.65,2.15,0.26,3.02c-0.16,0.35-0.31,0.81-0.66,1.02
					c-0.15,0.09-0.31,0.17-0.47,0.25c-1.84,0.9-3.9,1.34-5.92,1.55c-4.08,0.42-8.23-0.2-12.16-1.31c-4.37-1.24-8.56-3.06-12-6.08
					c-2.61-2.29-4.68-5.17-6.06-8.36c-1.19-2.74-1.89-5.67-2.08-8.65c-0.16-2.5,0.06-5,0.91-7.36c1.06-2.92,2.93-5.74,5.51-7.54
					c0.08-0.05,0.18-0.1,0.25-0.17c0.01-0.01,0.03-0.01,0.04-0.02c-0.03,0.03,0.09-0.21,0.12-0.25c0.09-0.15,0.18-0.3,0.26-0.46
					c0.58-1.05,1.04-2.16,1.43-3.29c0.25-0.71,0.44-1.46,0.76-2.15c0.07-0.15,0.17-0.34,0.34-0.39c0.17-0.04,0.39,0.04,0.55,0.08
					c0.81,0.18,1.61,0.41,2.38,0.72c0.41,0.16,1.43,0.46,1.29,1.04c-0.14,0.53-0.41,1.05-0.61,1.56C20.8,5.95,20.48,6.77,20.2,7.6
					c-0.22,0.66-0.47,1.37-0.49,2.07c-0.01,0.36-0.56,0.36-0.55,0c0.03-0.96,0.39-1.93,0.72-2.83c0.34-0.94,0.73-1.86,1.1-2.79
					c0.06-0.14,0.11-0.28,0.16-0.42c0.03-0.07,0.08-0.23,0.08-0.23c0,0-0.06,0.23,0.03,0.16c0,0-0.12-0.08-0.13-0.09
					c-0.09-0.06-0.18-0.11-0.27-0.16c-0.26-0.14-0.53-0.25-0.81-0.35c-0.53-0.2-1.07-0.36-1.61-0.5c-0.19-0.05-0.38-0.1-0.57-0.14
					c-0.06-0.01-0.13-0.03-0.19-0.04c-0.02,0-0.04,0-0.06-0.01c-0.07-0.04-0.02,0.02,0,0c-0.01,0.01,0.13-0.05,0.13-0.05
					c0.02,0.03,0.01-0.06,0,0c0,0.04-0.06,0.1-0.07,0.14c-0.07,0.16-0.13,0.32-0.18,0.49c-0.18,0.52-0.35,1.04-0.53,1.56
					c-0.49,1.39-1.07,2.77-1.84,4.03c-0.2,0.33-0.49,0.46-0.79,0.69c-0.57,0.43-1.1,0.93-1.6,1.45c-2.71,2.87-4.2,6.69-4.31,10.62
					c-0.11,3.6,0.62,7.26,2.06,10.56c1.81,4.16,4.79,7.73,8.59,10.22c2.48,1.63,5.23,2.74,8.05,3.62c2.84,0.88,5.77,1.5,8.74,1.69
					c3.19,0.2,6.63-0.07,9.57-1.35c0.27-0.12,0.54-0.25,0.8-0.39c0.05-0.03,0.13-0.06,0.17-0.1c0.01-0.01,0.02-0.01,0.02-0.01
					c0,0,0,0,0,0c-0.06-0.02-0.05-0.07,0.04-0.13c0.04-0.09,0.1-0.18,0.15-0.27c0.1-0.19,0.19-0.38,0.27-0.58
					c0.24-0.64,0.38-1.5-0.11-2.01c-0.07-0.08-0.02-0.01-0.04-0.03c-0.24-0.23-0.33-0.64-0.5-0.94c-0.42-0.71-1-1.31-1.61-1.86
					c-2.26-2.05-5.13-3.24-7.9-4.43c-2.78-1.2-5.5-2.47-7.85-4.42c-2.21-1.84-4.04-4.16-5.07-6.86c-0.61-1.62-0.86-3.33-1.03-5.05
					c-0.18-1.7-0.26-3.43-0.89-5.04c-0.58-1.48-1.5-2.81-2.61-3.94C19,9.61,19.39,9.22,19.64,9.47z"/>
			</g>
			<g>
				<g>
					<path class="st1" d="M46.36,43.09c-0.26,0.61-0.33,1.29-0.25,1.95c0.02,0.15-0.14,0.28-0.28,0.28c-0.17,0-0.26-0.13-0.28-0.28
						c-0.09-0.76,0.03-1.53,0.33-2.23c0.06-0.14,0.26-0.17,0.38-0.1C46.4,42.8,46.41,42.95,46.36,43.09L46.36,43.09z"/>
				</g>
				<g>
					<path class="st1" d="M18.2,9.79c-0.78-0.25-1.58-0.45-2.39-0.59c-0.15-0.03-0.23-0.21-0.19-0.34c0.04-0.16,0.19-0.22,0.34-0.19
						C16.76,8.8,17.56,9,18.34,9.26c0.14,0.05,0.23,0.19,0.19,0.34C18.5,9.74,18.34,9.84,18.2,9.79L18.2,9.79z"/>
				</g>
				<g>
					<path class="st1" d="M15.15,11.82c-1.29,6.74-1.79,14.13,1.48,20.41c2.94,5.64,8.34,9.67,14.35,11.54
						c3.78,1.18,7.78,1.56,11.72,1.31c0.36-0.02,0.35,0.53,0,0.55c-6.93,0.44-14.13-1.11-19.77-5.3c-2.51-1.86-4.68-4.19-6.27-6.89
						c-1.73-2.95-2.66-6.28-2.95-9.68c-0.35-4.05,0.13-8.12,0.89-12.1C14.68,11.32,15.22,11.47,15.15,11.82L15.15,11.82z"/>
				</g>
				<g>
					<path class="st1" d="M35.29,38.08c-1.87-0.75-3.68-1.62-5.39-2.69c-0.3-0.19-0.02-0.67,0.28-0.48c1.67,1.04,3.43,1.9,5.25,2.63
						C35.77,37.68,35.62,38.21,35.29,38.08L35.29,38.08z"/>
				</g>
				<g>
					<path class="st1" d="M43.6,42.27c-1.77-1.72-4.1-2.64-6.38-3.47c-0.33-0.12-0.19-0.66,0.15-0.53c2.37,0.86,4.78,1.82,6.62,3.61
						C44.25,42.13,43.86,42.52,43.6,42.27L43.6,42.27z"/>
				</g>
			</g>
		</g>
		<g>
			<path class="st1" d="M21.1,24.47c-1.13-3.7-0.23-8.08-2.56-11.38c-0.21-0.29,0.27-0.57,0.48-0.28c2.37,3.36,1.47,7.76,2.62,11.51
				C21.74,24.66,21.2,24.81,21.1,24.47L21.1,24.47z"/>
		</g>
		<g>
			<path class="st1" d="M24.23,30.38c-0.92-1.19-1.71-2.47-2.34-3.84c-0.15-0.32,0.33-0.6,0.48-0.28c0.61,1.32,1.36,2.58,2.25,3.73
				c0.09,0.12,0.11,0.28,0,0.39C24.53,30.47,24.32,30.5,24.23,30.38L24.23,30.38z"/>
		</g>
	</g>
	<g>
		<g>
			<path class="st0" d="M14.55,8.15c1.24,1.96,2.01,4.42,1.84,6.73c-0.18,2.31-0.65,4.61-0.52,6.92c0.26,4.6,2.93,8.81,6.4,11.85
				c3.64,3.19,8.27,5.41,10.91,9.47c0.53,0.82,0.97,1.71,1.1,2.68c0,0,1.12,1.12-1.05,3.36c0,0-8.31,3.15-21.68-5.61
				C-2.4,34.39-0.64,18.86,2.4,13.24C5.5,7.51,10.22,6,10.22,6c2.43-2.41,3.83-5.72,4.19-5.73c0.06,0,2.72,1.22,3.5,2.2
				C18.01,2.59,14.95,6.48,14.55,8.15z"/>
			<g>
				<path class="st2" d="M2.4,13.24C5.5,7.51,10.22,6,10.22,6c2.43-2.41,3.83-5.72,4.19-5.73c0.03,0,0.84,0.39,1.46,0.72
					c-1.69,3.04-6.1,7.12-7.7,11.95c-2.14,6.44-5.6,19.22,5.32,27.74c7.7,6.01,15.6,7.38,20.31,7.81c-0.16,0.21-0.34,0.43-0.57,0.66
					c0,0-8.31,3.15-21.68-5.61C-2.4,34.39-0.64,18.86,2.4,13.24z"/>
			</g>
		</g>
		<g>
			<g>
				<path class="st1" d="M14.79,8.01c0.87,1.39,1.5,2.95,1.76,4.57c0.28,1.75,0,3.48-0.2,5.22c-0.2,1.77-0.35,3.57-0.05,5.34
					c0.25,1.53,0.76,3.01,1.47,4.39c1.41,2.76,3.53,5.05,5.95,6.95c2.39,1.88,5.01,3.48,7.23,5.58c1.09,1.04,2.11,2.21,2.84,3.54
					c0.19,0.34,0.35,0.69,0.49,1.06c0.07,0.19,0.13,0.38,0.18,0.58c0.01,0.06,0.05,0.17,0.05,0.24c0-0.11,0.01,0.24-0.03,0.12
					c0.06,0.16,0.21,0.3,0.27,0.47c0.3,0.86-0.14,1.79-0.65,2.48c-0.28,0.37-0.54,0.79-1,0.93c-2.34,0.71-4.97,0.59-7.35,0.23
					c-2.45-0.37-4.84-1.1-7.12-2.06c-3.04-1.27-6-2.9-8.64-4.87c-4.09-3.05-7.23-7.2-8.8-12.08c-1.25-3.88-1.5-8.07-0.81-12.08
					c0.27-1.54,0.68-3.07,1.3-4.5c0.94-2.19,2.44-4.18,4.22-5.75C7.07,7.32,8.42,6.41,9.9,5.82c0.07-0.03,0.19-0.05,0.25-0.09
					c-0.1,0.08,0.13-0.18,0.12-0.18c0.05-0.06,0.11-0.11,0.16-0.17c0.13-0.14,0.26-0.28,0.38-0.43c0.28-0.32,0.54-0.65,0.79-0.99
					c0.74-1.01,1.37-2.08,2.03-3.14c0.15-0.24,0.3-0.54,0.52-0.72c0.22-0.18,0.41-0.08,0.65,0.02c0.95,0.43,1.89,0.94,2.71,1.58
					c0.24,0.18,0.77,0.52,0.67,0.88C18.11,2.8,17.92,3.02,17.8,3.2c-0.56,0.83-1.14,1.64-1.68,2.48c-0.5,0.78-1.08,1.63-1.3,2.54
					c-0.09,0.35-0.62,0.2-0.53-0.15c0.23-0.91,0.78-1.75,1.27-2.53c0.53-0.84,1.1-1.65,1.66-2.47c0.09-0.13,0.18-0.27,0.27-0.4
					c0.05-0.07,0.1-0.22,0.17-0.28c-0.01,0.01,0.06,0.22,0,0.2c-0.06-0.02-0.15-0.16-0.21-0.21c-0.21-0.2-0.44-0.37-0.68-0.53
					c-0.46-0.31-0.94-0.59-1.44-0.84c-0.2-0.1-0.4-0.2-0.6-0.3c-0.09-0.04-0.33-0.13-0.35-0.16c-0.04-0.05-0.02-0.02,0.08-0.02
					c0.05,0,0.05-0.05,0.01,0.01c-0.07,0.11-0.16,0.21-0.23,0.33C14,1.25,13.77,1.65,13.53,2.04c-0.71,1.17-1.48,2.32-2.38,3.36
					c-0.26,0.3-0.54,0.73-0.91,0.88c-0.11,0.05-0.27,0.1-0.34,0.13c-0.6,0.26-1.18,0.57-1.73,0.92c-3.41,2.16-5.83,5.63-6.85,9.51
					c-0.95,3.6-1.02,7.45-0.29,11.1c0.93,4.63,3.25,8.86,6.63,12.16c2.22,2.16,4.85,3.86,7.57,5.33c2.47,1.33,5.07,2.44,7.79,3.15
					c2.93,0.78,6.14,1.18,9.15,0.55c0.27-0.06,0.54-0.12,0.8-0.2c0.04-0.01,0.11-0.02,0.15-0.05c0,0,0.01,0,0.01,0
					c-0.05,0.04,0.14-0.21,0.15-0.22c0.24-0.28,0.47-0.57,0.65-0.89c0.31-0.55,0.5-1.25,0.14-1.78c0.06,0.08-0.06-0.08-0.06-0.09
					c-0.07-0.15-0.06-0.35-0.1-0.51c-0.06-0.24-0.13-0.47-0.22-0.69c-0.29-0.74-0.73-1.42-1.19-2.06c-1.74-2.39-4.21-4.12-6.58-5.82
					c-2.42-1.75-4.79-3.54-6.65-5.91c-1.82-2.32-3.17-5.05-3.58-7.99c-0.24-1.7-0.11-3.41,0.09-5.11c0.2-1.7,0.5-3.42,0.21-5.13
					c-0.26-1.56-0.86-3.05-1.7-4.38C14.12,7.99,14.6,7.71,14.79,8.01z"/>
			</g>
			<g>
				<g>
					<path class="st1" d="M33.63,46.56c-0.39,0.55-0.64,1.19-0.7,1.84c-0.01,0.15-0.12,0.28-0.28,0.28c-0.14,0-0.29-0.13-0.28-0.28
						c0.07-0.76,0.33-1.5,0.77-2.12c0.09-0.12,0.24-0.18,0.38-0.1C33.65,46.25,33.72,46.43,33.63,46.56L33.63,46.56z"/>
				</g>
				<g>
					<path class="st1" d="M13.3,8c-0.69-0.41-1.4-0.77-2.14-1.07c-0.14-0.06-0.24-0.18-0.19-0.34c0.04-0.13,0.2-0.25,0.34-0.19
						c0.78,0.32,1.54,0.69,2.27,1.13C13.88,7.7,13.6,8.18,13.3,8L13.3,8z"/>
				</g>
				<g>
					<path class="st1" d="M15.03,2.78c-0.68,1.03-1.37,2.06-2.05,3.08c-0.2,0.3-0.68,0.02-0.48-0.28c0.68-1.03,1.37-2.06,2.05-3.08
						C14.75,2.2,15.23,2.48,15.03,2.78L15.03,2.78z"/>
				</g>
				<g>
					<path class="st1" d="M8.53,33.38c1.5,3.14,3.7,5.88,6.38,8.08c2.66,2.18,5.76,3.81,9.01,4.92c1.85,0.63,3.76,1.09,5.69,1.39
						c0.35,0.05,0.2,0.59-0.15,0.53c-3.47-0.54-6.87-1.6-10-3.21c-3.09-1.59-5.92-3.74-8.16-6.4c-1.29-1.53-2.39-3.22-3.25-5.03
						C7.9,33.34,8.38,33.06,8.53,33.38L8.53,33.38z"/>
				</g>
				<g>
					<path class="st1" d="M6.98,17.91c-0.9,4.03-0.83,8.26,0.32,12.23c0.1,0.34-0.43,0.49-0.53,0.15c-1.18-4.07-1.25-8.4-0.32-12.52
						C6.52,17.41,7.06,17.56,6.98,17.91L6.98,17.91z"/>
				</g>
				<g>
					<path class="st1" d="M9.89,9.33c-0.87,2.01-1.65,4.07-2.28,6.17c-0.1,0.34-0.64,0.2-0.53-0.15c0.64-2.15,1.45-4.24,2.33-6.3
						C9.55,8.73,10.03,9.01,9.89,9.33L9.89,9.33z"/>
				</g>
				<g>
					<path class="st1" d="M3.86,20.34c-0.39,2.49-0.4,5.05,0.32,7.49c0.1,0.34-0.43,0.49-0.53,0.15c-0.74-2.53-0.72-5.19-0.32-7.78
						C3.38,19.84,3.92,19.99,3.86,20.34L3.86,20.34z"/>
				</g>
				<g>
					<path class="st1" d="M5.71,13.15c-0.51,1.64-1.01,3.28-1.4,4.95c-0.08,0.35-0.62,0.2-0.53-0.15c0.4-1.67,0.9-3.31,1.4-4.95
						C5.28,12.66,5.82,12.81,5.71,13.15L5.71,13.15z"/>
				</g>
				<g>
					<path class="st1" d="M31.08,45.2c-1.29-1.97-3.24-3.33-5.2-4.58c-2.06-1.32-4.09-2.63-5.89-4.29c-1.08-1-2.08-2.08-3-3.23
						c-0.22-0.28,0.17-0.67,0.39-0.39c1.64,2.07,3.56,3.91,5.71,5.44c1.91,1.36,3.99,2.47,5.82,3.94c1.01,0.82,1.93,1.75,2.64,2.84
						C31.75,45.22,31.27,45.5,31.08,45.2L31.08,45.2z"/>
				</g>
				<g>
					<path class="st1" d="M14.48,28.53c-1.3-2.54-1.93-5.38-1.81-8.23c0.02-0.36,0.57-0.36,0.55,0c-0.12,2.75,0.47,5.5,1.73,7.95
						C15.12,28.57,14.64,28.85,14.48,28.53L14.48,28.53z"/>
				</g>
			</g>
		</g>
	</g>
</g>
<g>
	<path class="st1" d="M38.04,12.91c0-0.22,0.08-0.41,0.23-0.56s0.34-0.23,0.56-0.23c0.21,0,0.39,0.08,0.55,0.23
		c0.16,0.15,0.24,0.34,0.24,0.56v2.64h4.03c0.22,0,0.41,0.08,0.56,0.23s0.23,0.34,0.23,0.56c0,0.21-0.08,0.39-0.23,0.55
		s-0.34,0.24-0.56,0.24h-4.03v5.08c0,0.29,0.06,0.57,0.17,0.83c0.12,0.26,0.27,0.49,0.47,0.7c0.2,0.2,0.43,0.36,0.7,0.47
		c0.27,0.11,0.55,0.17,0.84,0.17c0.44,0,0.84-0.12,1.2-0.36c0.36-0.24,0.63-0.57,0.81-0.99c0.07-0.15,0.17-0.27,0.29-0.36
		c0.12-0.09,0.27-0.14,0.44-0.14c0.22,0,0.41,0.08,0.56,0.24s0.23,0.34,0.23,0.55c0,0.09-0.02,0.19-0.06,0.29
		c-0.28,0.61-0.61,1.07-1,1.39c-0.39,0.32-0.77,0.55-1.13,0.69c-0.37,0.14-0.68,0.21-0.94,0.23s-0.39,0.02-0.41,0.02
		c-0.52,0-1-0.1-1.46-0.29c-0.46-0.19-0.86-0.46-1.2-0.8s-0.61-0.74-0.81-1.2c-0.2-0.46-0.3-0.94-0.3-1.45V12.91z"/>
	<path class="st1" d="M46.07,16.35c0-0.22,0.08-0.41,0.23-0.56s0.34-0.23,0.56-0.23c0.21,0,0.39,0.08,0.55,0.23
		c0.16,0.15,0.24,0.34,0.24,0.56v5.87c0,0.29,0.05,0.57,0.16,0.83c0.11,0.26,0.26,0.49,0.47,0.7s0.44,0.36,0.7,0.47
		s0.55,0.17,0.85,0.17c0.29,0,0.57-0.06,0.84-0.17c0.27-0.11,0.5-0.27,0.7-0.47s0.35-0.43,0.47-0.7c0.12-0.26,0.18-0.54,0.18-0.83
		v-5.87c0-0.22,0.08-0.41,0.23-0.56s0.34-0.23,0.56-0.23c0.2,0,0.38,0.08,0.54,0.23c0.16,0.15,0.24,0.34,0.24,0.56v5.87
		c0,0.51-0.1,0.99-0.3,1.45c-0.2,0.46-0.47,0.86-0.81,1.2c-0.34,0.34-0.74,0.61-1.2,0.8c-0.46,0.19-0.95,0.29-1.45,0.29
		c-0.53,0-1.02-0.1-1.47-0.29c-0.45-0.19-0.85-0.46-1.2-0.8c-0.35-0.34-0.62-0.74-0.81-1.2c-0.19-0.46-0.29-0.94-0.29-1.45V16.35z"
		/>
	<path class="st1" d="M54.97,12.69c0-0.22,0.08-0.41,0.23-0.56s0.34-0.23,0.56-0.23c0.21,0,0.39,0.08,0.55,0.23
		c0.16,0.15,0.24,0.34,0.24,0.56v0.6c0,0.22-0.08,0.41-0.23,0.56s-0.34,0.23-0.56,0.23c-0.21,0-0.39-0.08-0.55-0.23
		c-0.16-0.15-0.24-0.34-0.24-0.56V12.69z M54.97,16.35c0-0.22,0.08-0.41,0.23-0.56s0.34-0.23,0.56-0.23c0.21,0,0.39,0.08,0.55,0.23
		c0.16,0.15,0.24,0.34,0.24,0.56v8.74c0,0.22-0.08,0.41-0.23,0.56s-0.34,0.23-0.56,0.23c-0.21,0-0.39-0.08-0.55-0.23
		c-0.16-0.15-0.24-0.34-0.24-0.56V16.35z"/>
	<path class="st1" d="M63.51,12.69c0-0.22,0.08-0.41,0.23-0.56s0.34-0.23,0.56-0.23c0.21,0,0.39,0.08,0.55,0.23
		c0.16,0.15,0.24,0.34,0.24,0.56v3.5c0.3-0.22,0.64-0.4,1.02-0.52s0.76-0.19,1.17-0.19c0.51,0,0.99,0.1,1.45,0.29
		s0.87,0.46,1.21,0.8c0.35,0.34,0.62,0.74,0.81,1.2c0.19,0.46,0.29,0.94,0.29,1.46v3c0,0.51-0.1,0.99-0.3,1.45
		c-0.2,0.46-0.47,0.86-0.81,1.2c-0.34,0.34-0.74,0.61-1.2,0.8c-0.46,0.19-0.94,0.29-1.45,0.29c-0.53,0-1.02-0.1-1.47-0.29
		c-0.45-0.19-0.85-0.46-1.2-0.8s-0.62-0.74-0.81-1.2s-0.29-0.94-0.29-1.45V12.69z M65.1,22.22c0,0.29,0.05,0.57,0.16,0.83
		c0.11,0.26,0.27,0.49,0.47,0.7s0.44,0.36,0.7,0.47c0.26,0.11,0.55,0.17,0.85,0.17c0.29,0,0.57-0.06,0.84-0.17s0.5-0.27,0.7-0.47
		c0.19-0.2,0.35-0.43,0.47-0.7c0.12-0.26,0.18-0.54,0.18-0.83v-3c0-0.29-0.06-0.57-0.17-0.83c-0.11-0.26-0.27-0.5-0.47-0.7
		c-0.2-0.2-0.43-0.36-0.7-0.47c-0.26-0.11-0.55-0.16-0.85-0.16c-0.29,0-0.57,0.05-0.83,0.16s-0.49,0.26-0.69,0.45
		s-0.35,0.41-0.47,0.66c-0.12,0.25-0.18,0.52-0.2,0.81V22.22z"/>
	<path class="st1" d="M71.88,19.22c0-0.51,0.1-1,0.29-1.46c0.19-0.46,0.46-0.86,0.81-1.2s0.75-0.61,1.2-0.8
		c0.45-0.19,0.94-0.29,1.47-0.29c0.51,0,0.99,0.1,1.45,0.29s0.86,0.46,1.2,0.8c0.34,0.34,0.61,0.74,0.81,1.2
		c0.2,0.46,0.3,0.94,0.3,1.46v5.86c0,0.22-0.08,0.41-0.24,0.56c-0.16,0.15-0.34,0.23-0.54,0.23c-0.2,0-0.37-0.06-0.51-0.18
		c-0.15-0.12-0.23-0.27-0.26-0.44c-0.64,0.47-1.37,0.7-2.21,0.7c-0.51,0-1-0.1-1.46-0.29c-0.46-0.19-0.86-0.46-1.2-0.8
		s-0.61-0.74-0.81-1.2s-0.3-0.94-0.3-1.45V19.22z M73.46,22.22c0,0.29,0.06,0.57,0.17,0.83c0.12,0.26,0.27,0.49,0.47,0.7
		c0.2,0.2,0.43,0.36,0.7,0.47c0.27,0.11,0.55,0.17,0.84,0.17c0.29,0,0.57-0.05,0.83-0.16c0.26-0.1,0.49-0.25,0.69-0.44
		s0.35-0.4,0.47-0.66c0.12-0.25,0.19-0.52,0.2-0.81v-3.1c0-0.29-0.06-0.57-0.18-0.83c-0.12-0.26-0.28-0.5-0.47-0.7
		c-0.19-0.2-0.43-0.36-0.7-0.47s-0.55-0.16-0.84-0.16c-0.3,0-0.59,0.05-0.85,0.16c-0.26,0.11-0.5,0.26-0.7,0.47s-0.36,0.44-0.47,0.7
		c-0.11,0.26-0.16,0.54-0.16,0.83V22.22z M75.95,11.6c0.14-0.25,0.37-0.38,0.67-0.38c0.24,0,0.43,0.08,0.57,0.23
		c0.14,0.15,0.22,0.33,0.22,0.54c0,0.18-0.04,0.32-0.1,0.42l-0.85,1.47c-0.16,0.25-0.38,0.38-0.67,0.38c-0.24,0-0.43-0.08-0.58-0.23
		s-0.23-0.33-0.23-0.54c0-0.12,0.04-0.26,0.12-0.42L75.95,11.6z"/>
	<path class="st1" d="M80.74,19.22c0-0.51,0.1-1,0.29-1.46c0.19-0.46,0.46-0.86,0.81-1.2c0.35-0.34,0.75-0.61,1.2-0.8
		c0.45-0.19,0.94-0.29,1.47-0.29c0.51,0,0.99,0.1,1.45,0.29s0.86,0.46,1.2,0.8c0.34,0.34,0.61,0.74,0.81,1.2
		c0.2,0.46,0.3,0.94,0.3,1.46v5.86c0,0.22-0.08,0.41-0.24,0.56c-0.16,0.15-0.34,0.23-0.54,0.23c-0.22,0-0.41-0.08-0.56-0.23
		s-0.23-0.34-0.23-0.56v-5.86c0-0.29-0.06-0.57-0.18-0.83c-0.12-0.26-0.27-0.5-0.47-0.7s-0.43-0.36-0.7-0.47
		c-0.27-0.11-0.55-0.16-0.84-0.16c-0.3,0-0.59,0.05-0.85,0.16s-0.5,0.26-0.7,0.47s-0.36,0.44-0.47,0.7
		c-0.11,0.26-0.16,0.54-0.16,0.83v5.86c0,0.22-0.08,0.41-0.24,0.56c-0.16,0.15-0.34,0.23-0.55,0.23c-0.22,0-0.41-0.08-0.56-0.23
		s-0.23-0.34-0.23-0.56V19.22z"/>
	<path class="st1" d="M95,19.22c0-0.53,0.1-1.02,0.3-1.48c0.2-0.46,0.48-0.85,0.83-1.19c0.36-0.33,0.77-0.6,1.23-0.79
		c0.46-0.19,0.96-0.29,1.49-0.29c0.09,0,0.28,0.02,0.57,0.05c0.29,0.03,0.6,0.13,0.95,0.28c0.35,0.15,0.69,0.38,1.03,0.7
		c0.34,0.31,0.62,0.75,0.84,1.3c0.04,0.12,0.06,0.21,0.06,0.29c0,0.22-0.08,0.41-0.23,0.56s-0.34,0.23-0.56,0.23
		c-0.17,0-0.32-0.05-0.45-0.14c-0.13-0.09-0.22-0.21-0.29-0.36c-0.19-0.42-0.46-0.75-0.83-0.98c-0.36-0.23-0.76-0.35-1.18-0.35
		c-0.3,0-0.59,0.05-0.85,0.16s-0.5,0.26-0.7,0.47s-0.36,0.44-0.47,0.7c-0.11,0.26-0.16,0.54-0.16,0.83v3c0,0.29,0.06,0.57,0.17,0.83
		c0.12,0.26,0.27,0.49,0.47,0.7c0.2,0.2,0.43,0.36,0.7,0.47c0.27,0.11,0.55,0.17,0.84,0.17c0.44,0,0.84-0.12,1.2-0.36
		c0.36-0.24,0.63-0.57,0.81-0.99c0.07-0.15,0.17-0.27,0.29-0.36c0.12-0.09,0.27-0.14,0.44-0.14c0.22,0,0.41,0.08,0.56,0.24
		s0.23,0.34,0.23,0.55c0,0.09-0.02,0.19-0.06,0.29c-0.28,0.61-0.61,1.07-1,1.39c-0.39,0.32-0.77,0.55-1.13,0.69
		c-0.37,0.14-0.68,0.21-0.94,0.23s-0.39,0.02-0.41,0.02c-0.52,0-1-0.1-1.46-0.29c-0.46-0.19-0.86-0.46-1.2-0.8s-0.61-0.74-0.81-1.2
		c-0.2-0.46-0.3-0.94-0.3-1.45V19.22z"/>
	<path class="st1" d="M103.5,12.69c0-0.22,0.08-0.41,0.23-0.56s0.34-0.23,0.56-0.23c0.21,0,0.39,0.08,0.55,0.23
		c0.16,0.15,0.24,0.34,0.24,0.56v3.5c0.3-0.22,0.64-0.4,1.02-0.52c0.37-0.12,0.76-0.19,1.17-0.19c0.51,0,0.99,0.1,1.45,0.29
		c0.46,0.19,0.86,0.46,1.2,0.8c0.34,0.34,0.61,0.74,0.81,1.2c0.2,0.46,0.3,0.94,0.3,1.46v5.86c0,0.22-0.08,0.41-0.24,0.56
		c-0.16,0.15-0.34,0.23-0.54,0.23c-0.22,0-0.41-0.08-0.56-0.23s-0.23-0.34-0.23-0.56v-5.86c0-0.29-0.06-0.57-0.18-0.83
		c-0.12-0.26-0.27-0.5-0.47-0.7s-0.43-0.36-0.7-0.47c-0.27-0.11-0.55-0.16-0.84-0.16c-0.3,0-0.59,0.05-0.84,0.16
		s-0.49,0.26-0.69,0.45s-0.36,0.41-0.47,0.66c-0.11,0.25-0.17,0.52-0.18,0.81v5.95c0,0.22-0.08,0.41-0.24,0.56
		c-0.16,0.15-0.34,0.23-0.55,0.23c-0.22,0-0.41-0.08-0.56-0.23s-0.23-0.34-0.23-0.56v-6.01V12.69z"/>
	<path class="st1" d="M112.01,16.35c0-0.22,0.08-0.41,0.23-0.56s0.34-0.23,0.56-0.23c0.21,0,0.39,0.08,0.55,0.23
		c0.16,0.15,0.24,0.34,0.24,0.56v5.87c0,0.29,0.05,0.57,0.16,0.83c0.11,0.26,0.26,0.49,0.47,0.7s0.44,0.36,0.7,0.47
		s0.55,0.17,0.85,0.17c0.29,0,0.57-0.06,0.84-0.17c0.27-0.11,0.5-0.27,0.7-0.47s0.35-0.43,0.47-0.7c0.12-0.26,0.18-0.54,0.18-0.83
		v-5.87c0-0.22,0.08-0.41,0.23-0.56s0.34-0.23,0.56-0.23c0.2,0,0.38,0.08,0.54,0.23c0.16,0.15,0.24,0.34,0.24,0.56v5.87
		c0,0.51-0.1,0.99-0.3,1.45c-0.2,0.46-0.47,0.86-0.81,1.2c-0.34,0.34-0.74,0.61-1.2,0.8c-0.46,0.19-0.95,0.29-1.45,0.29
		c-0.53,0-1.02-0.1-1.47-0.29c-0.45-0.19-0.85-0.46-1.2-0.8c-0.35-0.34-0.62-0.74-0.81-1.2c-0.19-0.46-0.29-0.94-0.29-1.45V16.35z"
		/>
	<path class="st1" d="M120.79,19.22c0-0.51,0.1-1,0.29-1.46c0.19-0.46,0.46-0.86,0.81-1.2s0.75-0.61,1.2-0.8
		c0.45-0.19,0.94-0.29,1.47-0.29c0.51,0,0.99,0.1,1.45,0.29s0.86,0.46,1.2,0.8c0.34,0.34,0.61,0.74,0.81,1.2
		c0.2,0.46,0.3,0.94,0.3,1.46v3c0,0.51-0.1,0.99-0.29,1.45c-0.19,0.46-0.46,0.86-0.81,1.2s-0.75,0.61-1.21,0.8
		c-0.46,0.19-0.94,0.29-1.45,0.29c-0.51,0-1-0.1-1.46-0.29c-0.46-0.19-0.86-0.46-1.2-0.8s-0.61-0.74-0.81-1.2s-0.3-0.94-0.3-1.45
		V19.22z M124.14,12.23c0.11-0.07,0.23-0.11,0.38-0.11c0.16,0,0.31,0.05,0.46,0.15l1.37,1c0.24,0.16,0.36,0.38,0.36,0.64
		c0,0.22-0.09,0.41-0.26,0.56c-0.18,0.15-0.37,0.23-0.57,0.23c-0.18,0-0.33-0.05-0.44-0.14l-0.91-0.65l-0.89,0.65
		c-0.14,0.09-0.29,0.14-0.44,0.14c-0.22,0-0.42-0.08-0.58-0.23c-0.17-0.15-0.25-0.34-0.25-0.56c0-0.26,0.12-0.48,0.34-0.64
		L124.14,12.23z M122.37,22.22c0,0.29,0.06,0.57,0.17,0.83c0.12,0.26,0.27,0.49,0.47,0.7c0.2,0.2,0.43,0.36,0.7,0.47
		c0.27,0.11,0.55,0.17,0.84,0.17c0.31,0,0.59-0.06,0.85-0.17c0.27-0.11,0.5-0.27,0.7-0.47c0.2-0.2,0.36-0.43,0.47-0.7
		c0.11-0.26,0.17-0.54,0.17-0.83v-3c0-0.29-0.06-0.57-0.18-0.83c-0.12-0.26-0.28-0.5-0.47-0.7c-0.19-0.2-0.43-0.36-0.7-0.47
		s-0.55-0.16-0.84-0.16c-0.3,0-0.59,0.05-0.85,0.16c-0.26,0.11-0.5,0.26-0.7,0.47s-0.36,0.44-0.47,0.7
		c-0.11,0.26-0.16,0.54-0.16,0.83V22.22z M126.6,9.88c0.14-0.25,0.37-0.38,0.67-0.38c0.24,0,0.43,0.08,0.57,0.23
		c0.15,0.15,0.22,0.33,0.22,0.54c0,0.18-0.04,0.32-0.11,0.42l-0.85,1.47c-0.15,0.25-0.37,0.38-0.66,0.38
		c-0.24,0-0.43-0.08-0.58-0.23s-0.23-0.33-0.23-0.54c0-0.12,0.04-0.26,0.12-0.41L126.6,9.88z"/>
	<path class="st1" d="M129.63,12.69c0-0.22,0.08-0.41,0.23-0.56s0.34-0.23,0.56-0.23c0.21,0,0.39,0.08,0.55,0.23
		c0.16,0.15,0.24,0.34,0.24,0.56v0.6c0,0.22-0.08,0.41-0.23,0.56s-0.34,0.23-0.56,0.23c-0.21,0-0.39-0.08-0.55-0.23
		c-0.16-0.15-0.24-0.34-0.24-0.56V12.69z M129.63,16.35c0-0.22,0.08-0.41,0.23-0.56s0.34-0.23,0.56-0.23c0.21,0,0.39,0.08,0.55,0.23
		c0.16,0.15,0.24,0.34,0.24,0.56v8.74c0,0.22-0.08,0.41-0.23,0.56s-0.34,0.23-0.56,0.23c-0.21,0-0.39-0.08-0.55-0.23
		c-0.16-0.15-0.24-0.34-0.24-0.56V16.35z"/>
</g>
</svg>
